<?xml version="1.0" standalone="no"?>
<!DOCTYPE svg PUBLIC "-//W3C//DTD SVG 1.1//EN" "http://www.w3.org/Graphics/SVG/1.1/DTD/svg11.dtd">
<svg xmlns="http://www.w3.org/2000/svg" id="Layer_1" data-name="Layer 1" viewBox="0 0 5000 1944.38" width="5000" height="1944.3800048828125">
  <defs>
    <style>
      .cls-1 {
        fill: #020c53;
      }

      .cls-2 {
        fill: #eee;
      }
    </style>
  </defs>
  <rect class="cls-1" y="0" width="1944.39" height="1944.38" rx="131.58" ry="131.58"/>
  <g>
    <path class="cls-2" d="M1326.98,606.76c-.22.04-.42.13-.65.18.21.07.38.2.6.27l.61-.29c-.21-.03-.36-.11-.55-.15h0Z"/>
    <path class="cls-2" d="M1418.5,698.29c-.22.04-.42.13-.65.18.21.07.38.2.6.27l.61-.29c-.2-.03-.35-.11-.55-.15h0Z"/>
    <path class="cls-2" d="M1052.4,332.18c-.22.04-.42.13-.65.18.21.07.38.2.6.26l.61-.29c-.2-.03-.36-.1-.55-.15h0Z"/>
    <path class="cls-2" d="M1189.88,469.66c-.04-.19-.12-.35-.17-.54l-.29.61c.07.21.2.38.27.59.06-.22.13-.42.19-.65h0Z"/>
    <path class="cls-2" d="M1235.44,515.23c-.22.04-.42.13-.65.18.21.07.38.2.6.26l.61-.29c-.19-.03-.35-.11-.55-.15h0Z"/>
    <path class="cls-2" d="M1555.94,753.99l1.31,1.31c-.13-7.09-.38-14.18-.76-21.26l-.62.62-36.25-36.24,29.51-29.46c-.73-4.26-1.57-8.49-2.37-12.72.68-7.65-.94-15.32-4.65-22.04-.46-2-.86-4.03-1.35-6.02l-20.92-20.92,12.56-9.55c-15.88-51.59-38.93-100.71-68.46-145.89-.75-1.15-1.47-2.32-2.22-3.47l-24.49-24.49,4.31-4.32c-18.34-24.36-38.54-47.26-60.42-68.5l-8.36,8.36-27.07-27.07,7.09-7.09c-42.8-36.62-90.57-66.98-141.9-90.18l5.8,5.81-27.32,35.94-.08-.08c-1.75-6.88-5.11-13.25-9.8-18.58-6.06-6.9-14.05-11.83-22.93-14.15l-2.85-2.85,25.45-19.34c-26.49-10.16-53.68-18.4-81.35-24.67l-.42-.1c-29.35-6.62-59.16-11-89.17-13.11l-1.55,1.55-1.8-1.8c-12.9-.88-25.82-1.35-38.75-1.4-15.98,0-31.75.82-47.39,2.06-1.44,3.37-2.65,6.9-3.48,10.73,5.93,24.46,21.15,39.61,45.59,45.57,21.08-4.52,34.54-18.82,45.9-35.83l35.88,35.88c-17.04,11.34-31.28,24.85-35.83,45.9,5.92,24.47,21.11,39.66,45.57,45.58,21.05-4.55,34.56-18.8,45.91-35.83l3.89,3.89c1.81,6.22,4.86,12.19,9.51,17.41,5.79,6.57,13.32,11.36,21.72,13.81l.76.76c-17,11.36-31.31,24.82-35.83,45.9,5.92,24.47,21.11,39.66,45.58,45.58,21.08-4.52,34.54-18.82,45.9-35.83l3.47,3.48c1.83,6.44,5.08,12.39,9.51,17.41,5.79,6.57,13.32,11.36,21.72,13.81l1.18,1.18.51.51,6.65.07c-7.26,3.53-14.91,6.5-21.55,10.94-14.49,9.67-21.57,23.32-18.69,41.14,2.72,16.84,17.08,31.18,33.94,33.93,17.83,2.91,31.46-4.2,41.13-18.68,4.53-6.77,7.52-14.56,11.13-21.94-7.61-22.57-22.68-37.68-45.16-45.38l1.74.02,9.19-.09.44-.44.61-.61c7.12-1.41,13.78-4.55,19.4-9.14,8.09-6.62,13.67-15.8,15.81-26.02,6.8,17.32,18.84,29.41,36.19,36.17l-2.91,2.91c-6.5,2.11-12.44,5.65-17.39,10.36-5.45,5.23-9.52,11.73-11.84,18.92l-3.64,3.64-.44.44-.09,9.19.09,9.2.52.51,3.05,3.06c1.83,6.44,5.08,12.39,9.51,17.41,5.79,6.57,13.32,11.36,21.72,13.81l1.6,1.6c-17,11.36-31.31,24.82-35.83,45.9,5.92,24.47,21.11,39.66,45.58,45.58,21.08-4.52,34.54-18.82,45.91-35.83l.33-.46.17-9.37-.17-9.09-.4-.4-36.25-36.24,1.25-1.25c6.73-1.51,13.01-4.56,18.35-8.92,7.81-6.39,13.3-15.17,15.62-25l.62-.62c6.79,17.33,18.84,29.41,36.19,36.17.11.04.19.11.3.14l6.82.34c-10.44.74-20.29,5.12-27.85,12.37-17.88,17.07-19.1,44.06-2.85,62.37,7.7,8.81,18.49,14.32,30.14,15.39l-5.94.11-.47.33c-17.03,11.35-31.28,24.85-35.83,45.91,5.92,24.47,21.11,39.66,45.57,45.58,21.05-4.55,34.56-18.8,45.91-35.83l5.96,5.96c4.14,9.4,11.65,16.91,21.05,21.05l8.87,8.87c-17,11.36-31.32,24.82-35.83,45.9,5.92,24.47,21.11,39.66,45.58,45.58,21.15-4.52,34.61-18.82,45.97-35.83h0ZM1061.99,240.77l35.82-35.77c6.8,17.32,18.85,29.41,36.19,36.17l-4.59,4.6c-5.53,2.18-10.58,5.4-14.87,9.51-4.79,4.6-8.53,10.18-10.95,16.36l-5.37,5.37-36.23-36.24h0ZM1153.53,332.32c7.49-1.31,14.52-4.53,20.41-9.34,8.01-6.56,13.57-15.64,15.77-25.76,6.81,16.96,18.73,28.82,35.83,35.49l-3.63,3.64c-5.83,2.1-11.37,5.4-16.25,10.06-5.11,4.92-9.01,10.96-11.39,17.64l-4.49,4.5-36.24-36.24h0ZM1280.92,368.35l-.51-.51c-1.75-6.88-5.11-13.25-9.8-18.58-6.05-6.9-14.04-11.83-22.92-14.15-.81-.81-1.62-1.62-2.43-2.44l35.94-27.32,27.04,27.04-27.32,35.96ZM1372.45,459.86l-.93-.93c-1.75-6.88-5.11-13.25-9.8-18.57-6.06-6.9-14.05-11.83-22.93-14.15l-2.01-2.01,35.94-27.32,27.04,27.04c-9.1,11.98-18.2,23.96-27.3,35.94h0ZM1464.24,488.42l27.04,27.04-27.3,35.95-.19.25-.12,3.08c-1.26-8.64-5.02-16.73-10.83-23.25-7.78-8.89-18.72-14.39-30.49-15.31l5.72-.24.25-.19c11.97-9.12,23.95-18.23,35.93-27.33h0ZM1428.1,606.88l-.4-.4-7.89-.14c10.03-.12,19.72-3.67,27.46-10.05,8.94-7.27,14.79-17.66,16.38-29.07l.12,3.59c.04.11.11.19.14.29,6.79,17.33,18.84,29.41,36.19,36.17l-8.9,8.92c-9.41,4.11-16.92,11.62-21.01,21.04l-5.86,5.87c-12.08-12.07-24.16-24.15-36.24-36.23h0Z"/>
    <path class="cls-2" d="M960.87,240.65c-.23.04-.43.13-.65.18.21.07.38.2.6.26l.61-.29c-.2-.03-.36-.1-.55-.15h0Z"/>
    <path class="cls-2" d="M1372.48,652.78c.08.21.2.38.27.59.04-.23.13-.43.18-.65-.04-.19-.12-.35-.17-.54l-.28.61h0Z"/>
    <path class="cls-2" d="M1326.92,607.2c-7.38,3.62-15.17,6.6-21.94,11.12-14.49,9.67-21.57,23.32-18.69,41.14,2.73,16.84,17.08,31.18,33.95,33.93,17.83,2.91,31.46-4.2,41.13-18.68,4.52-6.77,7.52-14.56,11.13-21.94-7.66-22.71-22.84-37.91-45.58-45.57Z"/>
    <path class="cls-2" d="M960.8,241.1c-7.38,3.61-15.17,6.6-21.94,11.12-14.49,9.67-21.57,23.32-18.69,41.14,2.72,16.84,17.08,31.18,33.94,33.93,17.83,2.91,31.46-4.2,41.13-18.68,4.52-6.77,7.51-14.56,11.13-21.94-7.65-22.72-22.83-37.93-45.57-45.57h0Z"/>
    <path class="cls-2" d="M1006.38,286.67c.08.21.2.38.27.59.04-.23.13-.43.18-.65-.04-.19-.11-.35-.17-.54l-.28.61h0Z"/>
    <path class="cls-2" d="M1418.45,698.73c-7.38,3.62-15.17,6.61-21.94,11.13-14.49,9.67-21.82,23.34-18.61,41.12,3.14,17.44,13.98,28.54,30.75,33.28,17.03,4.8,33.67-1.98,44.27-18,4.49-6.8,7.5-14.57,11.12-21.95-7.67-22.73-22.87-37.91-45.59-45.58h0Z"/>
    <path class="cls-2" d="M1464.01,744.31c.08.21.2.38.27.59.04-.23.13-.43.18-.65l-.15-.54-.29.61Z"/>
    <path class="cls-2" d="M1509.97,790.26l.61-.29c-.19-.04-.35-.11-.54-.17-.23.04-.43.13-.65.18.21.08.36.21.59.28h0Z"/>
    <path class="cls-2" d="M1469.33,842.53c2.72,16.84,17.08,31.18,33.94,33.93,14.5,2.36,26.17-1.98,35.23-11.44,4.54-13.38,8.5-26.96,11.85-40.69-8.51-16.31-21.82-27.82-40.39-34.07-7.38,3.61-15.17,6.6-21.94,11.12-14.49,9.68-21.56,23.33-18.69,41.15h0Z"/>
    <path class="cls-2" d="M1280.95,561.25c.08.21.2.38.27.59.04-.23.13-.43.18-.65-.04-.19-.12-.35-.17-.54l-.28.61h0Z"/>
    <path class="cls-2" d="M1235.39,515.68c-7.38,3.62-15.17,6.61-21.94,11.13-14.49,9.67-21.82,23.34-18.61,41.12,3.14,17.44,13.98,28.54,30.75,33.28,17.03,4.8,33.67-1.98,44.26-18,4.49-6.79,7.5-14.57,11.12-21.95-7.65-22.73-22.85-37.91-45.58-45.58h0Z"/>
    <path class="cls-2" d="M1103.23,476.41c2.72,16.84,17.08,31.18,33.94,33.93,17.83,2.91,31.46-4.2,41.13-18.68,4.53-6.77,7.52-14.56,11.13-21.94-7.66-22.72-22.84-37.93-45.57-45.57-7.38,3.61-15.17,6.6-21.95,11.12-14.49,9.67-21.56,23.32-18.68,41.14Z"/>
    <path class="cls-2" d="M1143.86,424.16l.61-.29c-.19-.04-.35-.11-.54-.17-.23.04-.42.13-.65.18.21.08.38.2.59.28Z"/>
    <path class="cls-2" d="M914.85,195.14c.07.22.2.38.27.6.04-.22.13-.42.18-.64-.04-.19-.12-.36-.17-.55-.1.19-.19.4-.28.6h0Z"/>
    <path class="cls-2" d="M828.29,198.67c.1,1.06.13,2.1.31,3.19,2.75,16.89,17.09,31.25,33.97,33.97,17.82,2.88,31.5-4.16,41.18-18.69,4.52-6.79,7.49-14.61,11.1-22.02-1.21-3.67-2.91-6.87-4.53-10.14-27.63,2.61-55.05,7.18-82.03,13.68Z"/>
    <path class="cls-2" d="M1097.91,378.19c.07.21.2.38.27.59.04-.23.13-.43.18-.65l-.15-.54c-.11.2-.19.41-.29.61h0Z"/>
    <path class="cls-2" d="M1052.33,332.63c-7.38,3.62-15.17,6.61-21.94,11.13-14.49,9.67-21.82,23.34-18.61,41.12,3.14,17.44,13.98,28.54,30.75,33.28,17.03,4.8,33.67-1.98,44.26-18,4.49-6.79,7.5-14.57,11.12-21.95-7.65-22.74-22.85-37.93-45.58-45.58h0Z"/>
    <path class="cls-2" d="M1391.89,806.12c-17.19,15.53-18.07,40.88-1.98,57.41,15.26,15.68,39.04,16.53,55.14,1.99,17.19-15.53,18.06-40.9,1.99-57.42-15.27-15.68-39.05-16.53-55.15-1.98h0Z"/>
    <path class="cls-2" d="M1482.91,898.13c-16.96,15.82-17.4,41.08-.98,57.42,4.4,4.36,9.74,7.65,15.61,9.62,11.29-23.92,21.7-48.25,31.21-72.94-14.92-8.28-33.5-5.89-45.84,5.9h0Z"/>
    <path class="cls-2" d="M1299.8,715.14c-16.93,15.84-17.31,41.12-.86,57.42,15.55,15.41,39.23,15.79,55.14.88,16.93-15.88,17.31-41.12.87-57.42-15.55-15.42-39.22-15.8-55.15-.88Z"/>
    <path class="cls-2" d="M931.63,351.08c-14.89,15.92-14.47,39.61.95,55.14,16.33,16.42,41.59,16.01,57.42-.94,14.91-15.95,14.5-39.6-.95-55.14-16.32-16.43-41.56-16.01-57.42.94h0Z"/>
    <path class="cls-2" d="M750.6,224.23c15.9,14.93,39.61,14.59,55.14-.79,6.11-5.97,10.15-13.73,11.54-22.15-22.88,6.02-45.36,13.42-67.34,22.17.24.25.41.53.66.77Z"/>
    <path class="cls-2" d="M1208.25,623.64c-16.91,15.88-17.27,41.13-.81,57.41,15.56,15.39,39.23,15.73,55.13.81,16.91-15.88,17.27-41.13.81-57.41-15.55-15.39-39.23-15.73-55.13-.81h0Z"/>
    <path class="cls-2" d="M842.74,256.92c-17.2,15.52-18.1,40.87-2.02,57.41,15.25,15.69,39.02,16.56,55.14,2.02,17.19-15.51,18.08-40.88,2.03-57.41-15.25-15.68-39.04-16.55-55.15-2.02Z"/>
    <path class="cls-2" d="M1116.43,532.39c-15.8,15.09-16.89,38.95-2.52,55.14,14.52,16.36,38.39,18.39,55.03,4.7,17.92-14.75,20.09-40.2,4.91-57.3-15.38-17.32-40.77-18.44-57.42-2.54h0Z"/>
    <path class="cls-2" d="M1025.78,440c-17.2,15.53-18.07,40.88-1.99,57.41,15.26,15.68,39.04,16.53,55.13,1.99,17.19-15.53,18.06-40.9,1.99-57.42-15.25-15.67-39.03-16.53-55.13-1.98Z"/>
    <path class="cls-2" d="M841.86,350.49c-15,14.86-15.12,40.1-.24,55.13,14.87,15.02,40.09,15.11,55.12.23,15-14.86,15.12-40.1.24-55.13-14.85-15-40.1-15.1-55.12-.23Z"/>
    <path class="cls-2" d="M841.66,443.72c-13.09,14.08-12.56,39.7,1.09,53.05,13.75,13.44,39.28,13.46,53.05.06,14.54-14.15,13.99-42.02-1.09-55.35-14.44-12.75-40.11-11.67-53.05,2.24Z"/>
    <path class="cls-2" d="M1471.38,1018.51c5.32-10.4,10.44-20.66,15.37-30.76-.84.62-1.74,1.09-2.54,1.79-8.46,7.4-12.71,18.14-12.83,28.97Z"/>
    <path class="cls-2" d="M933,442.41c-14.82,15.13-14.57,40.33.52,55.12,15.12,14.81,40.34,14.56,55.13-.53,14.82-15.13,14.57-40.33-.52-55.13-15.12-14.79-40.34-14.55-55.13.54Z"/>
    <path class="cls-2" d="M1392.12,991.74c-13.65,13.17-14.31,38.81-1.37,52.91,12.72,13.86,38.47,15.07,52.9,2.5,14.05-12.24,15.8-38.08,3.56-52.82-12.84-15.48-40.39-16.77-55.08-2.58h0Z"/>
    <path class="cls-2" d="M751.93,350.39c-14.87,13.68-14.98,41.51-.22,55.35,14.03,13.15,39.63,12.7,53.06-.94,13.48-13.69,13.59-39.21.21-53.05-13.27-13.72-38.9-14.39-53.05-1.36Z"/>
    <path class="cls-2" d="M934.08,534.35c-13.58,13.51-13.91,39.1-.71,53.06,13.92,14.72,41.75,14.49,55.35-.45,12.96-14.24,12.2-39.88-1.59-53.05-13.91-13.3-39.45-13.09-53.05.44h0Z"/>
    <path class="cls-2" d="M1391.41,899.27c-15.23,14.64-15.69,39.86-1.02,55.13,14.64,15.23,39.86,15.69,55.13,1,15.23-14.64,15.69-39.86,1.02-55.12-14.65-15.23-39.86-15.69-55.13-1.02h0Z"/>
    <path class="cls-2" d="M1025.83,532.63c-15.46,14.29-16.41,39.61-2.09,55.13,14.29,15.46,39.6,16.41,55.13,2.08,15.45-14.28,16.41-39.61,2.09-55.13-14.28-15.46-39.63-16.41-55.13-2.08h0Z"/>
    <path class="cls-2" d="M749.39,259.9c-14.46,15.4-13.72,40.7,1.63,55.12,15.39,14.46,40.71,13.7,55.13-1.65,14.46-15.39,13.71-40.7-1.65-55.13-15.39-14.45-40.69-13.69-55.12,1.66h0Z"/>
    <path class="cls-2" d="M1023.92,627.55c-12.6,14.54-11.31,40.3,2.66,53.05,14.22,12.97,39.86,12.24,53.05-1.51,13.3-13.87,13.13-39.45-.38-53.06-14.31-14.43-42.17-13.67-55.34,1.52Z"/>
    <path class="cls-2" d="M1300.12,900.53c-13.55,13.57-13.82,39.13-.56,53.06,13.14,13.8,38.76,14.62,53.06,1.69,14.03-12.69,15.41-38.44,2.84-53.05-13.15-15.28-40.92-16.14-55.34-1.7h0Z"/>
    <path class="cls-2" d="M1118.09,623.43c-15.79,13.8-17.42,39.24-3.54,55.12,13.79,15.78,39.25,17.41,55.13,3.53,15.78-13.79,17.41-39.25,3.54-55.13-13.8-15.78-39.25-17.4-55.13-3.52h0Z"/>
    <path class="cls-2" d="M1117.25,717.28c-13.62,13.43-14.09,39.03-.95,53.05,13.83,14.76,41.66,14.66,55.35-.21,13.04-14.17,12.39-39.78-1.35-53.05-13.83-13.37-39.36-13.27-53.05.21Z"/>
    <path class="cls-2" d="M1299.12,808.51c-14.82,15.13-14.57,40.33.52,55.12,15.12,14.81,40.34,14.56,55.13-.53,14.81-15.12,14.56-40.34-.53-55.13-15.13-14.81-40.32-14.56-55.12.54h0Z"/>
    <path class="cls-2" d="M692.08,250.09c-13.94,7.38-27.57,15.32-40.86,23.8-4.23,13.16-1.83,28.94,7.56,38.9,13.06,13.85,38.72,14.77,53.05,1.91,14.07-12.61,15.53-38.37,3.03-53.04-5.62-6.59-13.97-10.36-22.78-11.57h0Z"/>
    <path class="cls-2" d="M1209.62,714.95c-15.78,13.79-17.41,39.25-3.54,55.13,13.8,15.79,39.23,17.42,55.12,3.53,15.78-13.79,17.41-39.24,3.54-55.12-13.78-15.78-39.24-17.41-55.12-3.54h0Z"/>
    <path class="cls-2" d="M1208.04,809.55c-13.26,13.92-13,39.49.55,53.05,13.56,13.58,39.08,13.87,53.05.6,13.81-13.13,14.66-38.75,1.74-53.05-13.68-15.15-41.2-15.45-55.35-.6Z"/>
    <path class="cls-2" d="M934.04,629.04c-12.6,14.19-11.73,36.06,1.97,49.33,13.71,13.28,35.44,13.43,49.33.34,14.33-13.54,14.97-36.13,1.43-50.46-.36-.39-.74-.76-1.12-1.13-14.25-13.74-36.94-13.33-50.68.92-.32.33-.63.66-.93,1h0Z"/>
    <path class="cls-2" d="M659.89,354.04c-12.86,14.1-12.37,35.82,1.1,49.33,13.95,13.97,36.59,13.98,50.56.03.35-.35.7-.71,1.04-1.08,13.33-14.55,12.34-37.16-2.21-50.49-14.55-13.33-37.16-12.34-50.49,2.21h0Z"/>
    <path class="cls-2" d="M1025.85,720.3c-13.18,14.7-11.95,37.3,2.75,50.48,13.68,12.26,34.42,12.16,47.98-.23,14.48-13.43,15.32-36.05,1.9-50.52-.34-.37-.69-.73-1.05-1.08-14.03-13.89-36.67-13.77-50.56.27-.35.35-.69.71-1.02,1.08h0Z"/>
    <path class="cls-2" d="M1120.11,809.09c-15.13,13.45-15.95,37.03-1.79,51.59,13.32,13.67,35.03,14.48,49.33,1.84,14.72-13.2,15.96-35.84,2.76-50.56-.31-.35-.64-.69-.96-1.03-13.33-13.66-35.03-14.47-49.34-1.84Z"/>
    <path class="cls-2" d="M846.28,533.93c-15.08,12.75-16.96,35.31-4.21,50.38.32.38.65.76.99,1.12,12.96,14.01,34.65,15.38,49.26,3.1,15.08-12.71,17-35.24,4.28-50.32s-35.24-17-50.32-4.28Z"/>
    <path class="cls-2" d="M620.28,311.56c6.2-6.38,9.78-14.86,10.03-23.75-15.02,10.48-29.54,21.66-43.51,33.5,12.1,2.8,24.78-.89,33.49-9.75h0Z"/>
    <path class="cls-2" d="M1212.4,900.04c-15.08,12.75-16.96,35.31-4.21,50.38.32.38.65.76.99,1.12,12.96,14.01,34.64,15.37,49.25,3.1,15.07-12.74,16.96-35.29,4.22-50.37-.33-.39-.66-.77-1.01-1.14-12.94-14.04-34.64-15.41-49.24-3.1Z"/>
    <path class="cls-2" d="M1303.01,992.3c-14.34,13.59-14.94,36.22-1.36,50.56,13.11,13.83,34.75,14.96,49.22,2.56,14.64-13.27,15.75-35.89,2.49-50.53-.33-.36-.66-.72-1.01-1.07-13.42-13.57-35.11-14.24-49.34-1.52h0Z"/>
    <path class="cls-2" d="M753.47,443.5c-13.97,13-15.27,34.69-2.94,49.26,12.79,15.06,35.37,16.89,50.42,4.1.37-.32.74-.64,1.09-.97,13.97-13.01,15.26-34.69,2.95-49.26-12.81-15.06-35.4-16.89-50.46-4.08-.36.31-.72.63-1.07.95Z"/>
    <path class="cls-2" d="M1394.48,1083.9c-14.61,13.29-15.67,35.91-2.38,50.52.33.37.67.72,1.02,1.08,3.01,3.05,6.5,5.33,10.18,7.07,12.12-20.87,23.82-41.51,34.99-61.82-13.61-9.09-31.65-7.79-43.81,3.16Z"/>
    <path class="cls-2" d="M754.31,536.98c-13.6,13.22-14.6,31.79-2.46,45.97,13,15.19,33.56,16.75,48.24,3.65,14.94-13.35,16-33.79,2.5-48.28-13.69-14.71-33.94-15.27-48.27-1.35Z"/>
    <path class="cls-2" d="M1304.55,1085.09c-14.91,13.36-15.91,33.8-2.37,48.27,13.75,14.7,33.97,15.21,48.27,1.23,14.49-14.15,14.53-34.09.11-48.28-13.37-13.16-32.12-13.66-46.01-1.21h0Z"/>
    <path class="cls-2" d="M1211.88,994.67c-14.5,14.17-14.53,34.08-.1,48.29,14.3,14.06,34.47,13.64,48.29-1.03,12.77-13.55,12.82-32.44.1-46.04-13.72-14.67-34.01-15.19-48.29-1.23Z"/>
    <path class="cls-2" d="M661.88,446.34c-13.83,14.35-13.17,34.67,1.58,48.29,13.7,12.65,32.49,12.48,46.03-.43,14.57-13.91,14.87-34.06.7-48.3-14.22-14.29-34.29-14.1-48.3.44Z"/>
    <path class="cls-2" d="M1119.82,903.7c-14.08,14.28-13.68,34.44.97,48.27,14.43,13.64,34.83,12.74,48.27-2.12,12.51-13.83,12.11-32.59-.97-46.01-14.11-14.47-34.07-14.53-48.27-.14Z"/>
    <path class="cls-2" d="M571.2,353.99c-14.51,14.15-14.55,34.06-.11,48.27,13.39,13.17,32.14,13.68,46.01,1.24,14.91-13.38,15.91-33.81,2.37-48.28-13.73-14.68-33.95-15.2-48.27-1.23h0Z"/>
    <path class="cls-2" d="M1030.99,809.6c-15.38,12.83-17.23,33.4-4.36,48.2,13.13,15.1,33.65,16.46,48.29,3.18,13.91-12.62,15.61-31.52,4.15-45.9-12.56-15.76-32.99-18.08-48.08-5.49Z"/>
    <path class="cls-2" d="M847.38,626.97c-15.14,13.11-16.54,33.63-3.3,48.28,13.44,14.87,33.84,15.79,48.29,2.18,14.64-13.79,15.07-34.03,1.04-48.3-13.25-13.46-31.95-14.34-46.03-2.15Z"/>
    <path class="cls-2" d="M936.91,720.5c-14.2,14.24-13.91,34.33.68,48.27,14.4,13.75,34.73,12.97,48.27-1.83,12.59-13.76,12.3-32.55-.68-46.01-14.01-14.54-34.03-14.72-48.27-.43Z"/>
    <path class="cls-2" d="M1028.38,905.11c-12.11,13.07-11.32,34.11,1.73,46.21,13.06,12.1,34.13,11.31,46.21-1.73,12.1-13.07,11.31-34.11-1.74-46.21-13.06-12.12-34.08-11.33-46.2,1.73Z"/>
    <path class="cls-2" d="M662.28,538.99c-12.11,13.08-11.33,34.09,1.73,46.2,13.06,12.1,34.12,11.31,46.21-1.73,12.11-13.07,11.32-34.11-1.74-46.21s-34.11-11.31-46.2,1.74Z"/>
    <path class="cls-2" d="M754.7,629.62c-12.63,12.59-12.66,33.58-.07,46.21,12.59,12.63,33.56,12.66,46.2.07,12.63-12.6,12.66-33.56.08-46.2s-33.56-12.66-46.21-.08h0Z"/>
    <path class="cls-2" d="M1119.92,996.64c-12.11,13.07-11.32,34.11,1.73,46.21,13.06,12.1,34.12,11.31,46.21-1.74,12.11-13.08,11.33-34.11-1.73-46.2-13.08-12.11-34.12-11.33-46.21,1.73Z"/>
    <path class="cls-2" d="M501.39,410.52c9.24.5,18.64-2.68,25.39-9.74,7.76-8.1,10.42-19.45,8.14-29.82-11.75,12.69-22.93,25.89-33.53,39.56Z"/>
    <path class="cls-2" d="M1212.28,1087.33c-12.6,12.63-12.56,33.62.07,46.21,12.63,12.6,33.62,12.56,46.21-.08,12.6-12.64,12.56-33.61-.08-46.21-12.63-12.59-33.61-12.55-46.2.08h0Z"/>
    <path class="cls-2" d="M938.22,812.22c-12.84,12.29-13.29,33.34-.98,46.21,12.29,12.84,33.34,13.28,46.2.97,12.84-12.3,13.29-33.34.99-46.2-12.3-12.84-33.35-13.29-46.21-.98Z"/>
    <path class="cls-2" d="M618.31,492.31c12.31-12.86,11.87-33.92-.98-46.2-12.86-12.31-33.91-11.86-46.21.98-12.31,12.86-11.86,33.92.98,46.21,12.86,12.29,33.92,11.85,46.21-.99Z"/>
    <path class="cls-2" d="M845.3,722.09c-12.11,13.09-11.29,34.09,1.8,46.2,13.07,12.09,34.14,11.26,46.21-1.8,12.09-13.08,11.27-34.12-1.8-46.21-13.09-12.09-34.12-11.26-46.21,1.81Z"/>
    <path class="cls-2" d="M1303.42,1179.24c-12.35,12.83-11.97,33.85.84,46.21,12.82,12.35,33.86,11.97,46.2-.84,12.35-12.83,11.98-33.86-.84-46.21-12.83-12.35-33.86-11.97-46.2.84Z"/>
    <path class="cls-2" d="M1031.61,1090.06c-11.22,11.15-11.3,29.27-.18,40.52,11.16,11.57,28.7,12.14,40.52,1.32,11.86-10.84,12.92-28.47,2.44-40.53-10.29-12.14-28.47-13.64-40.61-3.35-.76.64-1.48,1.32-2.17,2.04Z"/>
    <path class="cls-2" d="M480.71,542.77c-10.18,12.24-8.7,29.88,3.38,40.45,12.07,10.56,29.6,9.56,40.52-2.31,10.85-11.79,10.33-29.35-1.18-40.54-12.32-11.98-31.69-10.9-42.72,2.4h0Z"/>
    <path class="cls-2" d="M755.77,816.71c-10.54,12.07-9.54,29.59,2.34,40.52,11.82,10.89,29.3,10.38,40.52-1.17,11.2-11.35,11.08-29.63-.27-40.83-.67-.66-1.38-1.29-2.11-1.89-12.13-10.16-30.19-8.66-40.48,3.37h0Z"/>
    <path class="cls-2" d="M1213.42,1274.36c-10.54,12.06-9.54,29.59,2.33,40.51,11.84,10.89,29.3,10.39,40.53-1.17,11.2-11.39,11.04-29.69-.34-40.89-.66-.64-1.34-1.26-2.05-1.84-12.26-10.17-29.9-8.69-40.46,3.39h0Z"/>
    <path class="cls-2" d="M1122.45,1182.25c-10.86,11.81-10.36,29.31,1.19,40.52,11.21,11.15,29.33,11.13,40.52-.04,11.53-10.97,11.97-29.21,1-40.74-.69-.72-1.41-1.41-2.17-2.05-12.06-10.52-29.66-9.52-40.54,2.32Z"/>
    <path class="cls-2" d="M573.21,633.14c-10.82,11.82-10.25,29.37,1.32,40.53,12.41,11.97,31.69,10.83,42.7-2.52,10.14-12.28,8.61-29.93-3.49-40.44-12.06-10.49-29.69-9.43-40.53,2.43h0Z"/>
    <path class="cls-2" d="M665.8,723.65c-11.43,11.31-11.76,28.78-.77,40.51,11.04,11.77,28.52,12.6,40.52,1.92,11.98-10.67,13.29-28.34,3.01-40.51-10.19-12.29-28.41-13.99-40.7-3.8-.72.59-1.4,1.22-2.06,1.88Z"/>
    <path class="cls-2" d="M941.81,996.77c-12.16,10.32-13.66,28.55-3.33,40.71.62.73,1.27,1.42,1.95,2.08,11.11,11.26,29.25,11.37,40.51.27,11.62-11.16,12.22-28.67,1.4-40.53-10.81-11.88-28.46-12.98-40.53-2.53h0Z"/>
    <path class="cls-2" d="M847.11,908.44c-10.4,12.1-9.22,29.71,2.72,40.52,11.92,10.79,29.4,10.11,40.52-1.56,11.03-11.33,10.84-29.45-.44-40.54-11.18-11.42-29.5-11.62-40.92-.44-.66.64-1.28,1.31-1.87,2.02Z"/>
    <path class="cls-2" d="M760.09,1000.17c-10.28,9.67-10.21,27.9.13,37.52,9.4,8.73,25.88,8.68,35.22-.13,10.29-9.7,10.23-27.88-.12-37.51-9.38-8.72-25.9-8.67-35.23.12Z"/>
    <path class="cls-2" d="M425.44,538.2c-7.08,16.23-13.44,32.77-19.06,49.56,8.29,1.76,17.12-.64,23.94-7.25,10.89-10.59,11.38-26.26,1.17-37.36-1.78-1.91-3.82-3.58-6.05-4.95h0Z"/>
    <path class="cls-2" d="M941.68,1091.6c-10.56,10.73-10.65,26.54-.23,37.37,10.53,10.93,26.22,11.5,37.37,1.35,12.26-11.16,12.34-28.34.22-39.64-11.03-10.27-26.72-9.88-37.36.92h0Z"/>
    <path class="cls-2" d="M393.39,634.67c-.35.35-.61.79-.94,1.17-1.92,7.75-3.69,15.53-5.31,23.35.92,3.94,2.62,7.67,5.3,10.71,8.42,9.53,24.94,11.01,35.17,3.15,11.07-8.51,12.69-26.81,3.3-37.43-9.32-10.54-27.58-11.01-37.52-.95h0Z"/>
    <path class="cls-2" d="M1125.8,1366.71c-10.05,9.94-9.58,28.2.96,37.51,9.67,8.55,26.07,8.09,35.22-.96,9.14-9.05,9.76-25.45,1.32-35.23-9.15-10.61-27.46-11.25-37.51-1.31Z"/>
    <path class="cls-2" d="M1215.38,1367.07c-10.1,11.2-9.45,26.86,1.55,37.36,4.63,4.52,10.75,7.2,17.21,7.54,8.58-12.88,17.11-25.78,25.61-38.71-1.72-3.39-4.11-6.4-7.01-8.85-11.5-9.78-27.15-8.67-37.36,2.66h0Z"/>
    <path class="cls-2" d="M942.01,1184.37c-8.73,9.4-8.68,25.89.11,35.24,9.68,10.29,27.88,10.22,37.51-.13,8.74-9.4,8.69-25.88-.11-35.22-9.68-10.29-27.88-10.23-37.51.11Z"/>
    <path class="cls-2" d="M575.83,818.34c-8.7,9.44-8.57,25.92.29,35.23,9.75,10.26,27.94,10.12,37.51-.28,8.7-9.45,8.57-25.92-.29-35.23-9.74-10.25-27.93-10.11-37.51.28Z"/>
    <path class="cls-2" d="M394.2,728.85c-7.95,8.63-7.83,23.7.25,32.22,8.91,9.37,25.55,9.25,34.3-.25,7.95-8.64,7.83-23.7-.25-32.23-8.9-9.36-25.55-9.24-34.3.27Z"/>
    <path class="cls-2" d="M485.31,819.96c-7.95,8.63-7.83,23.7.25,32.22,8.91,9.37,25.55,9.25,34.3-.25,7.95-8.64,7.83-23.7-.25-32.23-8.9-9.36-25.55-9.24-34.3.27Z"/>
    <path class="cls-2" d="M576.42,911.07c-7.95,8.63-7.83,23.7.27,32.22,8.91,9.37,25.55,9.25,34.3-.25,7.95-8.64,7.83-23.7-.25-32.23-8.92-9.36-25.56-9.24-34.32.27Z"/>
    <path class="cls-2" d="M667.53,1002.18c-7.95,8.63-7.83,23.7.27,32.22,8.91,9.37,25.55,9.25,34.3-.25,7.95-8.64,7.83-23.7-.25-32.23-8.92-9.36-25.56-9.24-34.32.27Z"/>
    <path class="cls-2" d="M487.56,913.16c-7.06,7.66-6.94,21.03.23,28.58,7.91,8.31,22.67,8.21,30.43-.22,7.06-7.66,6.94-21.03-.23-28.58-7.91-8.31-22.67-8.2-30.43.22Z"/>
    <path class="cls-2" d="M396.16,821.77c-7.06,7.66-6.94,21.03.23,28.58,7.91,8.31,22.67,8.21,30.43-.22,7.06-7.66,6.94-21.03-.23-28.58-7.89-8.32-22.67-8.21-30.43.22Z"/>
    <path class="cls-2" d="M579.81,1005.42c-7.06,7.66-6.94,21.03.23,28.58,7.91,8.31,22.67,8.21,30.43-.22,7.06-7.66,6.94-21.03-.23-28.58-7.91-8.31-22.67-8.2-30.43.22Z"/>
    <path class="cls-2" d="M515.99,1031.45c5.9-6.41,5.81-17.59-.19-23.9-6.6-6.96-18.95-6.86-25.45.19-5.9,6.4-5.81,17.59.19,23.9,6.61,6.96,18.96,6.87,25.45-.19Z"/>
    <path class="cls-2" d="M583.18,1100.57c-5.9,6.4-5.81,17.59.19,23.9,6.61,6.96,18.96,6.87,25.45-.19,5.9-6.41,5.81-17.59-.19-23.9-6.61-6.96-18.96-6.86-25.45.19Z"/>
    <path class="cls-2" d="M676,1193.4c-5.9,6.4-5.81,17.59.19,23.9,6.61,6.96,18.96,6.87,25.45-.19,5.9-6.41,5.81-17.59-.19-23.9-6.6-6.96-18.95-6.87-25.45.19Z"/>
    <path class="cls-2" d="M672.06,1097.67c-7.06,7.66-6.94,21.03.23,28.58,7.91,8.31,22.67,8.21,30.43-.22,7.06-7.66,6.94-21.03-.23-28.58-7.89-8.32-22.66-8.21-30.43.22Z"/>
    <path class="cls-2" d="M764.32,1189.93c-7.06,7.66-6.94,21.03.23,28.58,7.91,8.31,22.67,8.21,30.43-.22,7.06-7.66,6.94-21.03-.23-28.58-7.89-8.32-22.67-8.21-30.43.22Z"/>
    <path class="cls-2" d="M856.57,1282.18c-7.06,7.66-6.94,21.03.23,28.58,7.91,8.31,22.67,8.21,30.43-.22,7.06-7.66,6.94-21.03-.23-28.58-7.91-8.31-22.67-8.2-30.43.22Z"/>
    <path class="cls-2" d="M948.82,1374.44c-7.06,7.66-6.94,21.03.23,28.58,7.91,8.31,22.67,8.21,30.43-.22,7.06-7.66,6.94-21.03-.23-28.58-7.89-8.31-22.66-8.2-30.43.22Z"/>
    <path class="cls-2" d="M1041.08,1466.69c-7.06,7.66-6.94,21.03.23,28.58,7.91,8.31,22.67,8.21,30.43-.22,7.06-7.66,6.94-21.03-.23-28.58-7.89-8.32-22.66-8.21-30.43.22Z"/>
    <path class="cls-2" d="M951.42,1465.72c-5.98,6.49-5.9,17.83.2,24.23,6.7,7.06,19.22,6.96,25.8-.19,5.98-6.5,5.88-17.83-.2-24.23-6.7-7.06-19.21-6.97-25.8.19Z"/>
    <path class="cls-2" d="M858.6,1372.89c-5.98,6.49-5.9,17.83.2,24.23,6.7,7.06,19.22,6.96,25.8-.19,5.98-6.5,5.88-17.83-.2-24.23-6.7-7.06-19.22-6.96-25.8.19Z"/>
    <path class="cls-2" d="M771.7,1374.67c-5.1,5.53-5.01,15.19.17,20.65,5.71,6.01,16.37,5.93,21.98-.17,5.1-5.53,5.02-15.19-.17-20.65-5.71-6.01-16.37-5.92-21.98.17Z"/>
    <path class="cls-2" d="M861.09,1464.06c-5.1,5.53-5.01,15.19.17,20.65,5.71,6.01,16.37,5.93,21.98-.17,5.1-5.53,5.02-15.19-.17-20.65-5.71-6-16.37-5.92-21.98.17Z"/>
    <path class="cls-2" d="M950.48,1553.45c-5.1,5.53-5.01,15.19.17,20.65,5.71,6.01,16.37,5.93,21.98-.17,5.1-5.53,5.02-15.19-.17-20.65-5.71-6.01-16.37-5.93-21.98.17Z"/>
    <path class="cls-2" d="M678.01,1280.99c-5.1,5.53-5.01,15.19.17,20.65,5.71,6.01,16.37,5.93,21.98-.17,5.1-5.53,5.02-15.19-.17-20.65-5.71-6.01-16.37-5.93-21.98.17h0Z"/>
    <path class="cls-2" d="M586.9,1189.88c-5.1,5.53-5.01,15.19.17,20.65,5.71,6.01,16.37,5.93,21.98-.17,5.1-5.53,5.02-15.19-.17-20.65-5.71-6.01-16.36-5.93-21.98.17Z"/>
    <path class="cls-2" d="M495.79,1098.77c-5.1,5.53-5.02,15.19.17,20.65,5.71,6.01,16.37,5.93,21.98-.17,5.1-5.53,5.02-15.19-.17-20.65-5.71-6.01-16.37-5.93-21.98.17Z"/>
    <path class="cls-2" d="M791.75,1304.11c5.98-6.5,5.88-17.83-.2-24.23-6.7-7.04-19.21-6.96-25.8.19-5.98,6.49-5.9,17.83.2,24.23,6.71,7.06,19.22,6.97,25.8-.19Z"/>
    <path class="cls-2" d="M1040.81,1555.11c-5.98,6.49-5.9,17.83.2,24.23,6.7,7.06,19.22,6.96,25.8-.19,5.98-6.5,5.88-17.83-.2-24.23-6.7-7.06-19.22-6.96-25.8.19Z"/>
    <path class="cls-2" d="M793.2,1125.25c7.95-8.64,7.83-23.7-.25-32.23-8.9-9.37-25.55-9.25-34.3.25-7.95,8.63-7.83,23.7.27,32.22,8.91,9.4,25.55,9.27,34.29-.24Z"/>
    <path class="cls-2" d="M886.03,1218.09c7.95-8.64,7.83-23.7-.25-32.23-8.9-9.37-25.55-9.25-34.3.25-7.95,8.63-7.83,23.7.27,32.22,8.9,9.38,25.54,9.26,34.29-.24Z"/>
    <path class="cls-2" d="M944.29,1278.94c-7.95,8.63-7.83,23.7.27,32.22,8.91,9.37,25.55,9.25,34.3-.25,7.95-8.65,7.83-23.7-.25-32.23-8.91-9.36-25.56-9.24-34.32.27h0Z"/>
    <path class="cls-2" d="M1037.13,1371.78c-7.95,8.63-7.83,23.7.27,32.22,8.91,9.37,25.55,9.25,34.3-.25,7.95-8.65,7.83-23.7-.25-32.23-8.92-9.36-25.56-9.24-34.32.27Z"/>
    <path class="cls-2" d="M1127.66,1461.16c-7.95,8.63-7.83,23.7.25,32.22,8.91,9.37,25.55,9.25,34.3-.25,7.95-8.65,7.83-23.7-.27-32.23-8.9-9.36-25.54-9.24-34.29.27Z"/>
    <path class="cls-2" d="M848.89,1001.36c-9.93,11.47-8.95,26.99,2.33,37.35,11.1,10.19,26.8,9.69,37.36-1.19,10.47-10.78,10.44-26.59-.07-37.35-11.45-11.73-28.92-11.2-39.63,1.19h0Z"/>
    <path class="cls-2" d="M1124.59,1274.79c-10.47,10.78-10.44,26.61.06,37.37,10.6,10.86,26.28,11.32,37.36,1.08,12.18-11.25,12.16-28.42-.06-39.64-11.1-10.2-26.79-9.7-37.36,1.18h0Z"/>
    <path class="cls-2" d="M485.5,725.59c-10.29,9.68-10.22,27.88.13,37.51,9.38,8.72,25.9,8.67,35.23-.12,10.28-9.69,10.22-27.89-.12-37.51-9.41-8.73-25.89-8.68-35.24.12Z"/>
    <path class="cls-2" d="M1035.22,1274.22c-10.56,9.33-11.02,27.55-.96,37.51,9.15,9.05,25.56,9.5,35.23.96,9.51-8.39,11-24.97,3.16-35.17-8.51-11.09-26.81-12.7-37.43-3.3h0Z"/>
    <path class="cls-2" d="M668.56,908.64c-10.29,9.68-10.22,27.88.13,37.51,9.38,8.72,25.9,8.67,35.23-.12,10.28-9.69,10.22-27.89-.12-37.51-9.42-8.74-25.89-8.68-35.24.12Z"/>
    <path class="cls-2" d="M667.37,816.77c-10.73,10.65-11.04,26.38-.73,37.35,10.46,11.12,26.03,11.89,37.36,1.85,12.3-10.9,12.62-28.26.72-39.63-10.9-10.38-26.65-10.2-37.35.42h0Z"/>
    <path class="cls-2" d="M482.6,635.43c-9.76,11.49-8.63,27.16,2.68,37.36,11.2,10.1,26.85,9.45,37.36-1.56,10.39-10.89,10.22-26.63-.42-37.35-11.52-11.59-29.05-10.91-39.63,1.55Z"/>
    <path class="cls-2" d="M759.77,907.41c-12.26,11.15-12.34,28.34-.22,39.64,11.03,10.28,26.73,9.89,37.36-.92,10.56-10.73,10.65-26.54.23-37.37-10.53-10.93-26.22-11.49-37.37-1.35h0Z"/>
    <path class="cls-2" d="M850.4,1092.93c-8.7,9.44-8.58,25.91.28,35.22,9.74,10.26,27.96,10.12,37.52-.27,8.69-9.44,8.56-25.94-.29-35.24-9.74-10.25-27.92-10.11-37.51.29Z"/>
    <path class="cls-2" d="M575.26,725.81c-10.39,10.89-10.22,26.65.41,37.36,10.67,10.74,26.38,11.05,37.36.73,11.13-10.47,11.91-26.02,1.87-37.36-10.9-12.3-28.29-12.62-39.64-.73h0Z"/>
    <path class="cls-2" d="M1031.78,1184.57c-9.77,11.48-8.68,27.16,2.63,37.36,11.21,10.11,26.84,9.48,37.36-1.51,10.41-10.88,10.26-26.62-.36-37.35-11.5-11.6-29.03-10.94-39.63,1.5h0Z"/>
    <path class="cls-2" d="M1128.75,1554.36c-2.84,3.08-4.21,7.15-4.73,11.34-.29,2.31-.21,4.54.2,6.82l.06.07c5.58-7.96,11.26-16.11,16.99-24.35-1.53.18-3.04.53-4.49,1.04-3.06,1-5.82,2.74-8.03,5.08h0Z"/>
    <path class="cls-2" d="M425.12,916.87c-3.76-3.96-9.36-5.38-14.72-4.77,3.99,9.77,8.31,19.83,12.87,30.08.65-.51,1.47-.78,2.03-1.4.13-.14.18-.36.31-.52,4.27-5.03,5.06-12.55,2.45-18.61-.7-1.75-1.69-3.36-2.95-4.77h0Z"/>
    <path class="cls-2" d="M1057.88,1640.04c-4.15-2.09-9.01-2.25-13.29-.44-1.78.74-3.39,1.85-4.73,3.25-1.54,1.79-2.61,3.95-3.1,6.26-.84,3.36-.7,6.93.63,10.1.65,1.56,1.47,3.05,2.64,4.27,4.5,4.74,12.01,5.54,17.76,2.74l7.53-10.47c.77-4.66-.23-9.67-3.48-13.08-1.16-1.1-2.5-1.99-3.96-2.63h0Z"/>
    <path class="cls-2" d="M860.53,1558.64c-3.29,2.9-3.36,15.7-.1,18.63,11.54,10.39,18.56,2.77,24.14-9.51-5.66-11.07-12.27-19.5-24.04-9.12h0Z"/>
    <path class="cls-2" d="M698.54,1376.71c-2.5-2.63-6.16-3.62-9.72-3.3-2.85.25-5.63,1.3-7.6,3.43-1.59,1.72-2.35,3.99-2.67,6.32l8.56,12.93c2,.46,4.02.44,6-.08,2.09-.54,4.07-1.41,5.55-3.03,1.87-2.02,2.75-4.76,2.87-7.52.03-.78-.09-1.51-.19-2.29-.24-2.4-1.22-4.66-2.8-6.47h0Z"/>
    <path class="cls-2" d="M959.67,1643.56c-14.79,10.91-18.57,19.97,2.62,32.65,16.01-13.41,16.57-22.71-2.62-32.65Z"/>
    <path class="cls-2" d="M768.53,1467.64c-10.36,11.53-2.78,18.57,9.22,23.99,11.88-5.3,19.63-12.21,9.41-23.89-2.87-3.28-15.7-3.35-18.63-.1Z"/>
    <path class="cls-2" d="M862.83,1650.23l13.24,18.41c3.9-2.84,5-9,3.15-19.54-7.54-1.02-12.91-.66-16.38,1.14Z"/>
    <path class="cls-2" d="M950.25,1761.47c19.41,2.62,25.32-2.84,19.87-19.45q-17.06.44-19.87,19.45Z"/>
    <path class="cls-2" d="M937.48,907.89c-11.01,12.81-9.76,31.43,2.87,42.86,12.61,11.41,31.1,10.7,42.86-1.66,11.67-11.99,11.46-31.15-.46-42.88-11.84-12.08-31.23-12.27-43.31-.43-.68.67-1.34,1.37-1.96,2.11h0Z"/>
    <path class="cls-2" d="M845.22,815.63c-11.01,12.81-9.76,31.43,2.87,42.86,12.61,11.41,31.1,10.69,42.86-1.66,11.67-11.99,11.46-31.15-.46-42.88-11.84-12.08-31.23-12.27-43.31-.43-.68.67-1.34,1.37-1.96,2.11h0Z"/>
    <path class="cls-2" d="M754.69,723.95c-11.01,12.81-9.76,31.43,2.88,42.86,12.61,11.41,31.1,10.7,42.86-1.66,11.67-11.99,11.47-31.15-.46-42.88-11.85-12.08-31.25-12.27-43.33-.42-.68.67-1.33,1.37-1.95,2.1h0Z"/>
    <path class="cls-2" d="M664.15,632.27c-11.01,12.81-9.76,31.43,2.87,42.85,12.61,11.41,31.1,10.7,42.86-1.66,11.67-11.99,11.46-31.15-.46-42.88-11.84-12.08-31.24-12.26-43.31-.42-.68.67-1.34,1.37-1.96,2.11h0Z"/>
    <path class="cls-2" d="M573.62,540.58c-11.01,12.81-9.76,31.43,2.87,42.86,12.61,11.41,31.1,10.69,42.86-1.66,11.67-11.99,11.46-31.15-.46-42.88-11.84-12.08-31.23-12.27-43.31-.43-.68.67-1.34,1.37-1.96,2.11Z"/>
    <path class="cls-2" d="M480.22,449.47c-11.01,12.81-9.76,31.43,2.87,42.86,12.61,11.41,31.1,10.69,42.86-1.66,11.67-11.99,11.47-31.15-.46-42.88-11.85-12.08-31.25-12.26-43.33-.41-.68.67-1.33,1.36-1.94,2.09Z"/>
    <path class="cls-2" d="M1028.02,998.99c-11.01,12.81-9.76,31.43,2.88,42.86,12.61,11.41,31.1,10.7,42.86-1.66,11.67-11.99,11.47-31.15-.46-42.88-11.86-12.08-31.26-12.26-43.34-.41-.68.66-1.32,1.36-1.94,2.08h0Z"/>
    <path class="cls-2" d="M1119.7,1090.67c-11.01,12.81-9.76,31.43,2.87,42.86,12.61,11.41,31.1,10.69,42.86-1.66,11.67-11.99,11.46-31.15-.46-42.88-11.84-12.08-31.23-12.27-43.31-.43-.68.67-1.34,1.37-1.96,2.11Z"/>
    <path class="cls-2" d="M1210.81,1181.78c-11.01,12.81-9.76,31.43,2.87,42.86,12.61,11.41,31.1,10.69,42.86-1.66,11.67-11.99,11.46-31.15-.46-42.88-11.84-12.08-31.23-12.27-43.31-.43-.68.67-1.34,1.37-1.96,2.11Z"/>
    <path class="cls-2" d="M1298.76,1278.91c-5.36,9.79-4.85,21.75,1.32,31.05l.04,1.04.3-.47c9.9-15.46,19.72-30.98,29.47-46.54-9.02-.88-17.82,2.27-27.52,9.64-1.38,1.64-2.59,3.41-3.61,5.29h0Z"/>
  </g>
  <path class="cls-1" d="M2695.12,285.86c34.13,11.95,60.87,30.58,80.21,55.89,19.34,25.31,29.01,55.89,29.01,91.73h0c0,52.34-21.05,92.73-63.14,121.17-42.1,28.44-102.97,42.66-182.61,42.66h-322.55V0h305.48c76.23,0,134.25,14.08,174.07,42.24,39.82,28.16,59.73,66.13,59.73,113.92h0c0,28.44-6.97,53.9-20.91,76.37s-33.71,40.25-59.3,53.33h0ZM2519.34,122.02h-116.05v115.2h116.05c56.89,0,85.33-19.34,85.33-58.02h0c0-38.11-28.44-57.17-85.33-57.17h0ZM2544.94,475.29c59.16,0,88.74-20.19,88.74-60.58h0c0-40.39-29.58-60.58-88.74-60.58h-141.65v121.17h141.65ZM3357.29,366.92c0,1.14-.85,14.51-2.56,40.11h-336.2c6.83,23.89,20.05,42.24,39.68,55.04s44.23,19.2,73.81,19.2h0c22.19,0,41.39-3.13,57.6-9.39s32.57-16.5,49.06-30.72h0l85.33,88.74c-44.94,50.06-110.64,75.09-197.11,75.09h0c-54.04,0-101.54-10.24-142.5-30.72-40.96-20.48-72.67-48.92-95.14-85.33-22.47-36.41-33.71-77.65-33.71-123.73h0c0-45.51,10.95-86.33,32.85-122.45,21.9-36.12,52.19-64.42,90.88-84.9,38.68-20.48,82.2-30.72,130.56-30.72h0c46.08,0,87.89,9.53,125.44,28.59,37.55,19.06,67.27,46.65,89.17,82.77,21.9,36.12,32.85,78.93,32.85,128.42h0ZM3110.68,242.34c-25.03,0-45.94,7.11-62.72,21.33-16.78,14.22-27.45,33.56-32,58.02h189.43c-4.55-24.46-15.22-43.8-32-58.02-16.78-14.22-37.69-21.33-62.72-21.33h0ZM3733.59,127.14c57.46,0,103.68,17.07,138.66,51.2s52.48,85.61,52.48,154.45h0v264.52h-162.13v-238.07c0-63.14-25.31-94.72-75.94-94.72h0c-27.87,0-50.2,9.1-66.98,27.31-16.78,18.2-25.17,45.51-25.17,81.92h0v223.56h-162.13V134.82h154.45v50.34c18.2-18.77,39.82-33.14,64.85-43.09,25.03-9.96,52.34-14.93,81.92-14.93h0ZM2861.52,853.3l-228.69,383.13v214.18h-168.95v-216.74l-227.83-380.57h178.34l141.65,237.22,141.65-237.22h163.83ZM3038.15,980.44c76.8,0,135.39,17.49,175.78,52.48,40.39,34.99,60.58,88.6,60.58,160.85h0v256.84h-151.03v-59.73c-23.32,44.94-68.83,67.41-136.53,67.41h0c-35.84,0-66.84-6.26-93.01-18.77-26.17-12.52-45.94-29.44-59.3-50.77s-20.05-45.65-20.05-72.96h0c0-43.8,16.78-77.79,50.34-101.97,33.56-24.18,85.33-36.27,155.3-36.27h92.16c-2.84-48.92-35.55-73.38-98.13-73.38h0c-22.19,0-44.66,3.56-67.41,10.67-22.75,7.11-42.1,16.92-58.02,29.44h0l-54.61-110.08c25.6-17.07,56.74-30.29,93.44-39.68,36.69-9.39,73.53-14.08,110.5-14.08h0ZM3032.18,1355.89c18.77,0,35.27-4.55,49.49-13.65,14.22-9.1,24.46-22.47,30.72-40.1h0v-40.11h-69.97c-47.22,0-70.82,15.64-70.82,46.93h0c0,14.22,5.4,25.6,16.21,34.13,10.81,8.53,25.6,12.8,44.37,12.8h0ZM3620.1,1458.29c-51.2,0-96.99-10.24-137.38-30.72-40.39-20.48-71.82-48.92-94.29-85.33-22.47-36.41-33.71-77.65-33.71-123.73h0c0-46.08,11.24-87.18,33.71-123.3s53.9-64.28,94.29-84.48,86.18-30.29,137.38-30.29h0c52.34,0,97.56,11.24,135.68,33.71,38.11,22.47,65.14,53.62,81.06,93.44h0l-125.44,64c-21.05-41.53-51.77-62.29-92.16-62.29h0c-29.01,0-53.05,9.67-72.1,29.01s-28.59,46.08-28.59,80.21h0c0,34.7,9.53,61.86,28.59,81.49,19.06,19.63,43.09,29.44,72.1,29.44h0c40.39,0,71.11-20.76,92.16-62.29h0l125.44,64c-15.93,39.82-42.95,70.97-81.06,93.44s-83.34,33.71-135.68,33.71h0ZM4125.26,1458.29c-49.49,0-94.15-10.24-133.97-30.72-39.82-20.48-70.97-48.92-93.44-85.33-22.47-36.41-33.71-77.65-33.71-123.73h0c0-45.51,11.24-86.47,33.71-122.88,22.47-36.41,53.47-64.71,93.01-84.9s84.33-30.29,134.4-30.29h0c50.06,0,95,10.1,134.82,30.29s70.82,48.35,93.01,84.48,33.28,77.22,33.28,123.3h0c0,46.08-11.09,87.32-33.28,123.73-22.19,36.41-53.19,64.85-93.01,85.33-39.82,20.48-84.76,30.72-134.82,30.72h0ZM4125.26,1329.44c28.44,0,51.77-9.81,69.97-29.44,18.2-19.63,27.31-46.79,27.31-81.49h0c0-34.13-9.1-60.87-27.31-80.21s-41.53-29.01-69.97-29.01h0c-28.44,0-51.77,9.67-69.97,29.01s-27.31,46.08-27.31,80.21h0c0,34.7,9.1,61.86,27.31,81.49,18.2,19.63,41.53,29.44,69.97,29.44h0ZM4781.45,988.12h154.45l-191.14,462.49h-167.25l-190.29-462.49h166.39l110.93,282.44,116.9-282.44Z"/>
  <path class="cls-1" d="M2312.27,1941.84v-194.76h-76.22v-27.64h183.88v27.64h-76.22v194.76h-31.44ZM2594.28,1858.6c0,2.33-.21,5.4-.64,9.21h-136.56c1.91,14.83,8.42,26.74,19.53,35.74,11.12,9,24.93,13.5,41.45,13.5h0c20.11,0,36.31-6.78,48.59-20.33h0l16.83,19.7c-7.62,8.9-17.1,15.67-28.42,20.33-11.33,4.66-23.98,6.99-37.95,6.99h0c-17.78,0-33.56-3.65-47.32-10.96-13.76-7.31-24.4-17.53-31.92-30.66-7.52-13.13-11.27-27.96-11.27-44.48h0c0-16.31,3.65-31.03,10.96-44.16,7.3-13.13,17.36-23.35,30.17-30.66,12.81-7.31,27.26-10.96,43.35-10.96h0c16.09,0,30.44,3.65,43.03,10.96s22.44,17.53,29.54,30.66c7.09,13.13,10.64,28.17,10.64,45.11h0ZM2511.08,1797.6c-14.61,0-26.84,4.45-36.68,13.34-9.85,8.9-15.61,20.55-17.31,34.95h107.98c-1.69-14.19-7.46-25.79-17.31-34.79-9.85-9-22.07-13.5-36.68-13.5h0ZM2783.25,1941.84h-34.62l-48.59-64.49-49.23,64.49h-33.98l66.38-86.1-63.2-82.29h33.98l46.37,60.68,46.05-60.68h33.35l-63.52,82.29,67.01,86.1ZM2911.24,1910.07l9.53,21.92c-4.45,3.81-9.95,6.72-16.51,8.74-6.56,2.01-13.34,3.02-20.33,3.02h0c-16.94,0-30.06-4.55-39.38-13.66-9.32-9.11-13.97-22.13-13.97-39.08h0v-92.45h-28.58v-25.1h28.58v-36.85h30.49v36.85h48.27v25.1h-48.27v91.18c0,9.11,2.28,16.1,6.83,20.97,4.55,4.87,11.06,7.31,19.53,7.31h0c9.32,0,17.26-2.65,23.82-7.94h0ZM2967.13,1941.84v-168.39h30.49v168.39h-30.49ZM2982.37,1741.05c-5.93,0-10.85-1.91-14.77-5.72-3.92-3.81-5.88-8.47-5.88-13.98h0c0-5.51,1.96-10.22,5.88-14.14,3.92-3.92,8.84-5.88,14.77-5.88h0c5.93,0,10.85,1.85,14.77,5.56,3.92,3.71,5.88,8.31,5.88,13.82h0c0,5.72-1.96,10.54-5.88,14.46-3.92,3.92-8.84,5.88-14.77,5.88h0ZM3065.26,1941.84v-235.74h30.49v235.74h-30.49ZM3315.52,1858.6c0,2.33-.21,5.4-.64,9.21h-136.56c1.91,14.83,8.42,26.74,19.53,35.74,11.12,9,24.93,13.5,41.44,13.5h0c20.11,0,36.31-6.78,48.59-20.33h0l16.83,19.7c-7.62,8.9-17.1,15.67-28.42,20.33-11.33,4.66-23.98,6.99-37.95,6.99h0c-17.78,0-33.56-3.65-47.32-10.96-13.76-7.31-24.4-17.53-31.92-30.66-7.52-13.13-11.27-27.96-11.27-44.48h0c0-16.31,3.65-31.03,10.96-44.16,7.3-13.13,17.36-23.35,30.17-30.66,12.81-7.31,27.26-10.96,43.35-10.96h0c16.09,0,30.44,3.65,43.03,10.96s22.44,17.53,29.54,30.66c7.09,13.13,10.64,28.17,10.64,45.11h0ZM3232.31,1797.6c-14.61,0-26.84,4.45-36.68,13.34-9.85,8.9-15.61,20.55-17.31,34.95h107.98c-1.69-14.19-7.46-25.79-17.31-34.79-9.85-9-22.07-13.5-36.68-13.5h0ZM3531.48,1944.38c-16.73,0-32.87-2.59-48.43-7.78-15.56-5.19-27.79-11.91-36.68-20.17h0l11.75-24.78c8.47,7.63,19.32,13.82,32.55,18.59,13.23,4.77,26.84,7.15,40.81,7.15h0c18.42,0,32.18-3.12,41.29-9.37,9.1-6.25,13.66-14.56,13.66-24.94h0c0-7.63-2.49-13.82-7.46-18.59-4.98-4.77-11.12-8.42-18.42-10.96-7.3-2.54-17.63-5.4-30.96-8.58h0c-16.73-4.02-30.22-8.05-40.49-12.07-10.27-4.02-19.06-10.22-26.36-18.59-7.3-8.37-10.96-19.65-10.96-33.84h0c0-11.86,3.12-22.56,9.37-32.09,6.25-9.53,15.72-17.16,28.42-22.88,12.7-5.72,28.48-8.58,47.32-8.58h0c13.13,0,26.04,1.69,38.75,5.08,12.7,3.39,23.61,8.26,32.71,14.61h0l-10.48,25.42c-9.32-5.93-19.27-10.43-29.85-13.5-10.59-3.07-20.96-4.61-31.12-4.61h0c-18,0-31.49,3.28-40.49,9.85-9,6.57-13.5,15.04-13.5,25.42h0c0,7.63,2.54,13.82,7.62,18.59s11.38,8.47,18.9,11.12c7.52,2.65,17.73,5.45,30.65,8.42h0c16.73,4.02,30.17,8.05,40.33,12.07s18.9,10.17,26.2,18.43c7.3,8.26,10.96,19.38,10.96,33.36h0c0,11.65-3.18,22.29-9.53,31.93-6.35,9.64-15.99,17.26-28.9,22.88-12.92,5.61-28.79,8.42-47.64,8.42h0ZM3741.09,1943.75c-16.73,0-31.76-3.71-45.1-11.12-13.34-7.41-23.77-17.63-31.28-30.66-7.52-13.03-11.27-27.8-11.27-44.32h0c0-16.52,3.76-31.29,11.27-44.32,7.52-13.03,17.94-23.19,31.28-30.5s28.37-10.96,45.1-10.96h0c16.73,0,31.71,3.65,44.94,10.96s23.61,17.47,31.12,30.5c7.52,13.03,11.27,27.8,11.27,44.32h0c0,16.52-3.76,31.29-11.27,44.32-7.52,13.03-17.89,23.25-31.12,30.66-13.23,7.41-28.21,11.12-44.94,11.12h0ZM3741.09,1917.06c10.8,0,20.48-2.49,29.06-7.47,8.57-4.98,15.3-11.97,20.17-20.97,4.87-9,7.3-19.33,7.3-30.98h0c0-11.65-2.43-21.97-7.3-30.98-4.87-9-11.59-15.94-20.17-20.81-8.57-4.87-18.26-7.31-29.06-7.31h0c-10.8,0-20.48,2.44-29.06,7.31-8.57,4.87-15.35,11.81-20.33,20.81s-7.46,19.33-7.46,30.98h0c0,11.65,2.49,21.97,7.46,30.98,4.98,9,11.75,15.99,20.33,20.97,8.57,4.98,18.26,7.47,29.06,7.47h0ZM3880.19,1941.84v-235.74h30.49v235.74h-30.49ZM4104.72,1773.46h30.49v168.39h-28.9v-25.42c-6.14,8.68-14.24,15.41-24.3,20.17-10.06,4.77-21.01,7.15-32.87,7.15h0c-22.44,0-40.12-6.2-53.04-18.59-12.92-12.39-19.37-30.66-19.37-54.8h0v-96.9h30.49v93.41c0,16.31,3.92,28.65,11.75,37.01,7.83,8.37,19.06,12.55,33.66,12.55h0c16.09,0,28.79-4.87,38.11-14.61,9.32-9.74,13.97-23.51,13.97-41.3h0v-87.05ZM4287.97,1910.07l9.53,21.92c-4.45,3.81-9.95,6.72-16.51,8.74-6.56,2.01-13.34,3.02-20.33,3.02h0c-16.94,0-30.06-4.55-39.38-13.66-9.32-9.11-13.97-22.13-13.97-39.08h0v-92.45h-28.58v-25.1h28.58v-36.85h30.49v36.85h48.27v25.1h-48.27v91.18c0,9.11,2.28,16.1,6.83,20.97,4.55,4.87,11.06,7.31,19.53,7.31h0c9.32,0,17.26-2.65,23.82-7.94h0ZM4343.87,1941.84v-168.39h30.49v168.39h-30.49ZM4359.11,1741.05c-5.93,0-10.85-1.91-14.77-5.72-3.92-3.81-5.88-8.47-5.88-13.98h0c0-5.51,1.96-10.22,5.88-14.14,3.92-3.92,8.84-5.88,14.77-5.88h0c5.93,0,10.85,1.85,14.77,5.56,3.92,3.71,5.88,8.31,5.88,13.82h0c0,5.72-1.96,10.54-5.88,14.46-3.92,3.92-8.84,5.88-14.77,5.88h0ZM4514.09,1943.75c-16.73,0-31.76-3.71-45.1-11.12-13.34-7.41-23.77-17.63-31.28-30.66-7.52-13.03-11.27-27.8-11.27-44.32h0c0-16.52,3.76-31.29,11.27-44.32s17.94-23.19,31.28-30.5,28.37-10.96,45.1-10.96h0c16.73,0,31.71,3.65,44.94,10.96s23.61,17.47,31.12,30.5,11.27,27.8,11.27,44.32h0c0,16.52-3.76,31.29-11.27,44.32-7.52,13.03-17.89,23.25-31.12,30.66-13.23,7.41-28.21,11.12-44.94,11.12h0ZM4514.09,1917.06c10.8,0,20.48-2.49,29.06-7.47,8.57-4.98,15.3-11.97,20.17-20.97,4.87-9,7.3-19.33,7.3-30.98h0c0-11.65-2.43-21.97-7.3-30.98s-11.59-15.94-20.17-20.81c-8.57-4.87-18.26-7.31-29.06-7.31h0c-10.8,0-20.48,2.44-29.06,7.31-8.57,4.87-15.35,11.81-20.33,20.81-4.98,9-7.46,19.33-7.46,30.98h0c0,11.65,2.49,21.97,7.46,30.98,4.98,9,11.75,15.99,20.33,20.97,8.57,4.98,18.26,7.47,29.06,7.47h0ZM4743.07,1771.87c21.38,0,38.37,6.2,50.97,18.59,12.6,12.39,18.9,30.55,18.9,54.49h0v96.9h-30.49v-93.41c0-16.31-3.92-28.59-11.75-36.85-7.83-8.26-19.06-12.39-33.66-12.39h0c-16.51,0-29.54,4.82-39.06,14.46-9.53,9.64-14.29,23.46-14.29,41.46h0v86.73h-30.49v-168.39h29.22v25.42c6.14-8.68,14.45-15.36,24.93-20.02,10.48-4.66,22.39-6.99,35.73-6.99h0ZM4927.27,1943.75c-13.76,0-26.99-1.85-39.7-5.56-12.7-3.71-22.65-8.42-29.85-14.14h0l12.7-24.15c7.41,5.3,16.41,9.53,26.99,12.71,10.59,3.18,21.28,4.77,32.08,4.77h0c26.68,0,40.02-7.63,40.02-22.88h0c0-5.08-1.8-9.11-5.4-12.07-3.6-2.97-8.1-5.14-13.5-6.51-5.4-1.38-13.07-2.91-23.02-4.61h0c-13.55-2.12-24.61-4.55-33.19-7.31-8.57-2.75-15.93-7.41-22.07-13.98-6.14-6.57-9.21-15.78-9.21-27.64h0c0-15.25,6.35-27.48,19.06-36.7s29.75-13.82,51.13-13.82h0c11.22,0,22.44,1.38,33.66,4.13,11.22,2.75,20.43,6.46,27.63,11.12h0l-13.02,24.15c-13.76-8.9-29.96-13.34-48.59-13.34h0c-12.92,0-22.76,2.12-29.54,6.35-6.78,4.24-10.16,9.85-10.16,16.84h0c0,5.51,1.91,9.85,5.72,13.03,3.81,3.18,8.52,5.51,14.13,6.99,5.61,1.48,13.5,3.18,23.66,5.08h0c13.55,2.33,24.51,4.82,32.87,7.47,8.36,2.65,15.51,7.15,21.44,13.5,5.93,6.35,8.89,15.25,8.89,26.69h0c0,15.25-6.51,27.38-19.53,36.38-13.02,9-30.75,13.5-53.2,13.5h0Z"/>
</svg>